<?xml version="1.0" standalone="no"?>
<!DOCTYPE svg PUBLIC "-//W3C//DTD SVG 20010904//EN"
 "http://www.w3.org/TR/2001/REC-SVG-20010904/DTD/svg10.dtd">
<svg version="1.0" xmlns="http://www.w3.org/2000/svg"
 width="512.000000pt" height="512.000000pt" viewBox="0 0 512.000000 512.000000"
 preserveAspectRatio="xMidYMid meet">

<g transform="translate(0.000000,512.000000) scale(0.100000,-0.100000)"
fill="#000000" stroke="none">
<path d="M3512 4420 c-189 -34 -373 -146 -487 -295 -139 -182 -191 -401 -150
-630 l17 -97 -123 -124 -124 -124 -605 604 c-675 673 -650 652 -780 650 -47
-1 -90 -8 -115 -19 -56 -24 -377 -344 -407 -404 -32 -67 -31 -178 1 -246 19
-39 153 -179 627 -655 l604 -605 -124 -124 -125 -124 -96 18 c-110 21 -250 17
-350 -10 -214 -56 -413 -221 -506 -420 -58 -124 -73 -191 -73 -335 -1 -220 44
-328 124 -298 14 5 113 97 221 204 l196 196 133 -36 c73 -19 134 -37 137 -39
2 -3 20 -64 39 -137 l36 -133 -196 -196 c-107 -108 -199 -207 -204 -221 -22
-60 20 -90 162 -117 95 -18 238 -13 331 12 33 9 96 34 141 55 321 154 494 498
429 855 l-17 97 123 124 124 124 495 -494 c272 -272 504 -498 515 -504 11 -5
208 -67 438 -137 452 -138 452 -138 479 -81 9 21 -7 84 -117 443 -70 230 -132
427 -137 438 -6 11 -232 243 -504 515 l-494 495 124 124 124 123 97 -17 c227
-41 447 11 629 148 128 98 237 262 282 427 12 45 18 103 18 190 1 220 -44 328
-124 298 -14 -5 -113 -97 -221 -204 l-196 -196 -134 36 c-73 21 -135 38 -137
40 -1 2 -19 63 -38 136 l-35 133 200 202 c188 188 201 203 201 238 0 43 -17
57 -100 82 -66 19 -254 28 -328 15z m212 -137 c3 -4 -70 -84 -164 -178 -98
-99 -170 -179 -170 -190 0 -21 85 -345 101 -387 6 -14 23 -31 37 -37 42 -16
366 -101 387 -101 11 0 92 73 191 172 140 138 175 168 180 154 4 -10 4 -59 1
-110 -9 -163 -71 -299 -187 -416 -76 -75 -149 -121 -252 -157 -63 -23 -90 -27
-198 -27 -104 -1 -137 3 -198 22 -51 16 -77 20 -90 13 -9 -5 -82 -75 -162
-155 l-145 -146 -157 157 -158 157 155 156 c85 86 155 161 155 166 0 5 -10 38
-21 74 -28 89 -35 235 -16 326 52 244 238 435 480 495 72 17 217 25 231 12z
m-2399 -32 c22 -10 88 -68 147 -128 l108 -108 -238 -238 -238 -237 -116 117
c-189 192 -188 214 25 430 180 183 223 205 312 164z m423 -404 l62 -62 -238
-238 -237 -237 -65 65 -65 65 235 235 c129 129 237 235 240 235 3 0 34 -28 68
-63z m1205 -1205 l1037 -1037 -95 -95 -95 -95 -1035 1035 c-569 569 -1035
1039 -1035 1045 0 10 170 185 180 185 3 0 472 -467 1043 -1038z m-283 -287
l1035 -1035 -95 -95 -95 -95 -1040 1040 -1040 1040 90 90 c49 49 94 90 100 90
5 0 476 -466 1045 -1035z m-445 -445 c-85 -86 -155 -161 -155 -166 0 -5 10
-38 22 -74 18 -53 22 -88 22 -195 0 -115 -3 -139 -26 -203 -37 -104 -83 -176
-158 -252 -117 -116 -253 -178 -416 -187 -51 -3 -100 -3 -110 1 -14 5 16 40
154 180 99 99 172 180 172 191 0 21 -85 345 -101 387 -6 14 -23 31 -37 37 -43
17 -364 101 -386 101 -12 0 -85 -65 -191 -170 -94 -94 -174 -167 -178 -164
-13 13 -7 144 9 217 57 249 250 441 496 493 94 20 238 13 330 -16 48 -15 73
-18 85 -11 10 5 83 75 163 155 l145 146 157 -157 158 -157 -155 -156z m1920
-734 c47 -154 84 -281 82 -283 -2 -1 -133 36 -290 84 l-287 88 202 202 c112
112 204 200 206 195 1 -4 40 -133 87 -286z"/>
</g>
</svg>
