<?xml version="1.0" standalone="no"?>
<!DOCTYPE svg PUBLIC "-//W3C//DTD SVG 20010904//EN"
 "http://www.w3.org/TR/2001/REC-SVG-20010904/DTD/svg10.dtd">
<svg version="1.0" xmlns="http://www.w3.org/2000/svg"
 width="200.000000pt" height="200.000000pt" viewBox="0 0 200.000000 200.000000"
 preserveAspectRatio="xMidYMid meet">

<g transform="translate(0.000000,200.000000) scale(0.100000,-0.100000)"
fill="#000000" stroke="none">
<path d="M1118 1730 c-23 -17 -43 -90 -199 -714 -156 -625 -172 -697 -160
-719 26 -48 85 -60 125 -25 23 20 45 101 196 708 100 399 169 694 165 707 -14
58 -81 80 -127 43z"/>
<path d="M429 1543 c-31 -33 -321 -374 -402 -471 -50 -61 -47 -67 174 -339
258 -317 254 -313 299 -313 47 0 80 33 80 81 0 29 -27 66 -190 266 -105 128
-190 237 -190 243 0 5 85 110 190 232 170 199 190 227 190 259 0 46 -33 79
-81 79 -27 0 -43 -8 -70 -37z"/>
<path d="M1442 1557 c-14 -15 -22 -36 -22 -58 0 -29 26 -66 190 -266 105 -128
190 -237 190 -242 0 -6 -85 -110 -190 -233 -169 -199 -190 -227 -190 -259 0
-46 33 -79 81 -79 45 0 26 -21 442 473 41 48 57 76 57 96 0 24 -42 82 -201
278 -258 318 -254 313 -299 313 -25 0 -43 -7 -58 -23z"/>
</g>
</svg>
